<svg xmlns="http://www.w3.org/2000/svg" width="84" height="16" fill="none" viewBox="0 0 84 16"><path fill="#fff" d="M1.564 12V3.42H4c1.644 0 3 .72 3 2.508v.048C7 7.8 5.632 8.508 4 8.508H2.608V12zm1.044-4.32h1.464c1.224 0 1.884-.6 1.884-1.704v-.048c0-1.212-.72-1.668-1.884-1.668H2.608zm8.035 4.428c-1.788 0-3.072-1.356-3.072-3.192V8.82c0-1.884 1.308-3.204 3.084-3.204s3.084 1.308 3.084 3.192v.096c0 1.896-1.308 3.204-3.096 3.204m.012-.828c1.26 0 2.052-.948 2.052-2.364v-.084c0-1.452-.804-2.388-2.052-2.388-1.26 0-2.052.936-2.052 2.376v.096c0 1.428.78 2.364 2.052 2.364m5.52.72-1.933-6.276h1.08l1.464 5.052 1.524-5.052h.864l1.428 5.052 1.476-5.052h1.02L21.142 12h-1.104L18.73 7.296 17.266 12zm10.467.108c-1.776 0-3.036-1.248-3.036-3.18v-.096c0-1.896 1.212-3.216 2.94-3.216 1.452 0 2.82.876 2.82 3.12v.324h-4.728c.048 1.428.732 2.22 2.016 2.22.972 0 1.536-.36 1.668-1.092h.996c-.216 1.26-1.26 1.92-2.676 1.92m-1.968-3.852h3.672c-.096-1.296-.768-1.812-1.8-1.812-1.02 0-1.704.696-1.872 1.812M30.644 12V5.724h.997v1.128c.396-.708.936-1.2 2.064-1.236v.936c-1.26.06-2.064.456-2.064 2.004V12zm6.655.108c-1.776 0-3.036-1.248-3.036-3.18v-.096c0-1.896 1.212-3.216 2.94-3.216 1.452 0 2.82.876 2.82 3.12v.324h-4.728c.048 1.428.732 2.22 2.016 2.22.972 0 1.536-.36 1.668-1.092h.996c-.216 1.26-1.26 1.92-2.676 1.92M35.33 8.256h3.672c-.096-1.296-.768-1.812-1.8-1.812-1.02 0-1.704.696-1.872 1.812m8.334 3.852c-1.644 0-2.832-1.164-2.832-3.12v-.096c0-1.92 1.2-3.276 2.928-3.276 1.044 0 1.692.504 2.052 1.116V2.724h.996V12h-.996v-1.08c-.36.612-1.236 1.188-2.148 1.188m.108-.828c1.164 0 2.076-.768 2.076-2.376v-.096c0-1.608-.768-2.364-1.992-2.364-1.248 0-1.992.876-1.992 2.4v.096c0 1.584.852 2.34 1.908 2.34m10.847.828c-1.02 0-1.764-.516-2.124-1.14V12H51.5V2.724h.996V6.78c.36-.612 1.212-1.164 2.124-1.164 1.644 0 2.856 1.2 2.856 3.156v.096c0 1.92-1.128 3.24-2.856 3.24m-.096-.828c1.248 0 1.92-.84 1.92-2.364V8.82c0-1.584-.876-2.376-1.932-2.376-1.164 0-2.052.768-2.052 2.376v.096c0 1.608.84 2.364 2.064 2.364m4.696 2.904 1.188-2.832-2.46-5.628h1.068l1.92 4.5 1.74-4.5h1.02l-3.468 8.46z"/><g clip-path="url(#a)"><path fill="#fff" d="M83.942 11.523c-.111-.303-.324-.464-.564-.599a1 1 0 0 0-.122-.064l-.22-.11c-.75-.399-1.338-.902-1.744-1.497a3.5 3.5 0 0 1-.3-.531c-.035-.1-.033-.157-.008-.208a.3.3 0 0 1 .097-.1c.13-.086.262-.172.353-.23.16-.104.289-.187.37-.243.31-.216.525-.446.66-.702.19-.36.213-.773.067-1.16-.204-.538-.713-.872-1.329-.872a1.8 1.8 0 0 0-.485.065 11 11 0 0 0-.036-1.137c-.116-1.343-.586-2.048-1.077-2.609A4.3 4.3 0 0 0 78.51.644C77.763.216 76.919 0 75.999 0c-.917 0-1.76.216-2.506.642a4.3 4.3 0 0 0-1.097.883c-.49.56-.96 1.265-1.076 2.609-.033.38-.04.771-.036 1.137l-.1-.024a2 2 0 0 0-.386-.042c-.616 0-1.125.335-1.328.872-.147.387-.124.8.067 1.16.134.257.351.486.66.702.082.058.209.14.37.244l.339.222a.4.4 0 0 1 .109.109c.027.053.027.11-.013.217-.065.145-.16.323-.295.52-.398.583-.968 1.077-1.695 1.47-.386.205-.786.34-.955.8-.128.347-.044.742.28 1.075q.157.17.41.31c.396.218.734.326 1 .4a.6.6 0 0 1 .2.09c.12.103.102.26.26.487.096.142.205.24.296.302.33.228.701.242 1.095.257.355.014.758.03 1.217.182.19.062.39.184.617.325.55.339 1.305.801 2.566.801 1.262 0 2.02-.466 2.575-.805.228-.139.425-.26.61-.321.459-.152.862-.168 1.216-.182.394-.015.764-.03 1.096-.257a1.15 1.15 0 0 0 .337-.367c.113-.193.111-.328.217-.42a.6.6 0 0 1 .191-.087c.267-.073.61-.18 1.014-.404a1.6 1.6 0 0 0 .43-.33l.005-.005c.301-.328.378-.71.253-1.05m-1.12.601c-.685.378-1.14.338-1.493.564-.3.194-.123.61-.34.76-.27.187-1.062-.012-2.085.326-.844.28-1.383 1.08-2.903 1.08-1.523 0-2.047-.797-2.903-1.08-1.024-.338-1.817-.14-2.085-.325-.217-.15-.04-.567-.34-.76-.353-.229-.808-.188-1.492-.565-.436-.24-.19-.389-.044-.46 2.478-1.197 2.872-3.05 2.89-3.19.022-.165.046-.296-.137-.466-.177-.164-.963-.65-1.18-.802-.36-.251-.518-.503-.401-.812.081-.214.281-.294.492-.294q.1 0 .197.022c.395.086.78.285 1.001.338q.047.01.082.01c.118 0 .159-.059.151-.195-.025-.432-.087-1.276-.019-2.065.094-1.084.444-1.621.86-2.098.2-.228 1.137-1.218 2.93-1.218 1.796 0 2.73.99 2.93 1.218.415.475.765 1.012.859 2.098.068.789.009 1.633-.02 2.065-.009.142.035.196.152.196a.3.3 0 0 0 .082-.011c.222-.053.606-.252 1.001-.338a1 1 0 0 1 .197-.022c.211 0 .411.082.492.294.118.31-.042.56-.401.812-.218.152-1.003.638-1.18.802-.183.169-.16.3-.137.467.017.139.412 1.992 2.89 3.19.14.07.39.219-.047.46"/></g><defs><clipPath id="a"><path fill="#fff" d="M68 0h16v16H68z"/></clipPath></defs></svg>